<?xml version="1.0" encoding="UTF-8" standalone="no"?>
<!-- Created with Inkscape (http://www.inkscape.org/) -->

<svg
   xmlns:dc="http://purl.org/dc/elements/1.1/"
   xmlns:cc="http://creativecommons.org/ns#"
   xmlns:rdf="http://www.w3.org/1999/02/22-rdf-syntax-ns#"
   xmlns:svg="http://www.w3.org/2000/svg"
   xmlns="http://www.w3.org/2000/svg"
   xmlns:sodipodi="http://sodipodi.sourceforge.net/DTD/sodipodi-0.dtd"
   xmlns:inkscape="http://www.inkscape.org/namespaces/inkscape"
   width="1770mm"
   height="512mm"
   viewBox="0 0 1770 512"
   version="1.1"
   id="svg8"
   inkscape:version="0.92.3 (2405546, 2018-03-11)"
   sodipodi:docname="mosga-logo-full.svg"
   inkscape:export-filename="/home/roman/Projekte/MOSGA_Docker/MOSGA.svg.png"
   inkscape:export-xdpi="50.799999"
   inkscape:export-ydpi="50.799999">
  <defs
     id="defs2" />
  <sodipodi:namedview
     id="base"
     pagecolor="#ffffff"
     bordercolor="#666666"
     borderopacity="1.0"
     inkscape:pageopacity="0.0"
     inkscape:pageshadow="2"
     inkscape:zoom="0.11313709"
     inkscape:cx="4620.6466"
     inkscape:cy="1737.7889"
     inkscape:document-units="mm"
     inkscape:current-layer="layer3"
     showgrid="false"
     inkscape:window-width="1920"
     inkscape:window-height="1025"
     inkscape:window-x="0"
     inkscape:window-y="27"
     inkscape:window-maximized="1"
     inkscape:snap-text-baseline="false"
     showguides="false" />
  <metadata
     id="metadata5">
    <rdf:RDF>
      <cc:Work
         rdf:about="">
        <dc:format>image/svg+xml</dc:format>
        <dc:type
           rdf:resource="http://purl.org/dc/dcmitype/StillImage" />
        <dc:title />
      </cc:Work>
    </rdf:RDF>
  </metadata>
  <g
     inkscape:groupmode="layer"
     id="layer2"
     inkscape:label="Box"
     style="display:inline" />
  <g
     inkscape:label="DNS"
     inkscape:groupmode="layer"
     id="layer1"
     transform="translate(0,215)"
     style="display:inline;opacity:1">
    <path
       inkscape:connector-curvature="0"
       style="display:inline;opacity:1;fill:#1a1a1a;stroke-width:0.28131345"
       mask="none"
       d="m 45.420827,-210.12237 c -6.69965,0 -12.09332,5.77112 -12.09332,12.93926 v 477.49127 c 0,7.16817 5.39367,12.93926 12.09332,12.93926 H 465.84432 c 6.69965,0 12.09333,-5.77109 12.09335,-12.93926 v -477.49127 c 0,-7.16814 -5.3937,-12.93926 -12.09335,-12.93926 z m 86.118833,67.46824 h 64.95107 l 61.96935,171.007143 61.63754,-171.007143 h 65.28286 V 130.17006 H 335.50706 V 28.677023 l 4.97075,-111.25161 -65.11699,175.70298 h -34.13275 l -64.95161,-175.54124 4.97076,111.08987 V 130.17006 h -49.70756 z"
       id="rect4000"
       sodipodi:nodetypes="ssssscssscccccccccccccccc" />
    <g
       style="display:inline;opacity:1"
       transform="matrix(-0.03972634,0.8284664,-0.8284664,-0.03972634,550.67219,-377.2456)"
       id="g3599">
      <path
         inkscape:connector-curvature="0"
         sodipodi:nodetypes="cccc"
         id="path3376"
         d="m 576.25464,53.777187 153.43767,8.880637 48.8435,-36.015915 z"
         style="display:inline;fill:#e6e6e6;fill-rule:evenodd;stroke:#000000;stroke-width:1px;stroke-linecap:butt;stroke-linejoin:miter;stroke-opacity:1" />
      <path
         inkscape:connector-curvature="0"
         sodipodi:nodetypes="cccc"
         id="path3378"
         d="M 576.25465,54.763925 595.98939,92.753321 729.19894,62.657824 Z"
         style="display:inline;fill:#999999;fill-rule:evenodd;stroke:#000000;stroke-width:1px;stroke-linecap:butt;stroke-linejoin:miter;stroke-opacity:1" />
      <path
         inkscape:connector-curvature="0"
         sodipodi:nodetypes="cccc"
         id="path3380"
         d="M 595.00266,93.740051 716.86473,81.405835 729.19894,62.657824 Z"
         style="fill:#e6e6e6;fill-rule:evenodd;stroke:#000000;stroke-width:1px;stroke-linecap:butt;stroke-linejoin:miter;stroke-opacity:1" />
      <path
         inkscape:connector-curvature="0"
         sodipodi:nodetypes="cccc"
         id="path3382"
         d="m 595.84489,93.391191 c 2.46684,4.44032 24.81294,33.404559 24.81294,33.404559 l 97.687,-44.896547 z"
         style="fill:#808080;fill-rule:evenodd;stroke:#000000;stroke-width:1px;stroke-linecap:butt;stroke-linejoin:miter;stroke-opacity:1" />
      <path
         inkscape:connector-curvature="0"
         id="path3384"
         d="M 567.86738,344.37135 758.80107,302.92838 580.69496,379.8939 Z"
         style="fill:#999999;fill-rule:evenodd;stroke:#000000;stroke-width:1px;stroke-linecap:butt;stroke-linejoin:miter;stroke-opacity:1" />
      <path
         inkscape:connector-curvature="0"
         id="path3386"
         d="m 580.2016,379.8939 172.67904,-41.44297 6.41379,-37.00266 z"
         style="fill:#e6e6e6;fill-rule:evenodd;stroke:#000000;stroke-width:1px;stroke-linecap:butt;stroke-linejoin:miter;stroke-opacity:1" />
      <path
         inkscape:connector-curvature="0"
         id="path3388"
         d="m 580.69496,379.8939 33.54908,30.09549 139.12997,-72.03183 z"
         style="fill:#999999;fill-rule:evenodd;stroke:#000000;stroke-width:1px;stroke-linecap:butt;stroke-linejoin:miter;stroke-opacity:1" />
      <path
         inkscape:connector-curvature="0"
         id="path3390"
         d="m 763.24138,280.23342 -194.38726,63.64456 189.94695,-40.9496 z"
         style="fill:#e6e6e6;fill-rule:evenodd;stroke:#000000;stroke-width:1px;stroke-linecap:butt;stroke-linejoin:miter;stroke-opacity:1" />
      <path
         inkscape:connector-curvature="0"
         sodipodi:nodetypes="cccc"
         id="path3392"
         d="M 566.38727,306.87533 763.73475,279.45104 568.85412,344.86472 Z"
         style="fill:#999999;fill-rule:evenodd;stroke:#000000;stroke-width:1px;stroke-linecap:butt;stroke-linejoin:miter;stroke-opacity:1" />
      <path
         inkscape:connector-curvature="0"
         id="path3394"
         d="M 744,258.03183 566.88064,306.38196 762.74802,279.24668 Z"
         style="fill:#e6e6e6;fill-rule:evenodd;stroke:#000000;stroke-width:1px;stroke-linecap:butt;stroke-linejoin:miter;stroke-opacity:1" />
      <path
         inkscape:connector-curvature="0"
         id="path3402"
         d="m 743.50664,257.53846 c -2.46685,0 -170.21221,6.41379 -170.21221,6.41379 l -5.92042,41.93634 z"
         style="fill:#999999;fill-rule:evenodd;stroke:#000000;stroke-width:1px;stroke-linecap:butt;stroke-linejoin:miter;stroke-opacity:1" />
      <path
         inkscape:connector-curvature="0"
         id="path3404"
         d="m 573.7878,263.45888 146.53051,-29.10875 24.17506,24.66844 z"
         style="fill:#e6e6e6;fill-rule:evenodd;stroke:#000000;stroke-width:1px;stroke-linecap:butt;stroke-linejoin:miter;stroke-opacity:1" />
      <path
         inkscape:connector-curvature="0"
         sodipodi:nodetypes="cccc"
         id="path3406"
         d="M 721.07589,233.71225 590.56234,209.6817 573.7878,264.44562 Z"
         style="fill:#808080;fill-rule:evenodd;stroke:#000000;stroke-width:1px;stroke-linecap:butt;stroke-linejoin:miter;stroke-opacity:1" />
      <path
         inkscape:connector-curvature="0"
         id="path3408"
         d="m 620.16446,126.79575 h 53.77719 l 43.41644,-44.896547 z"
         style="fill:#e6e6e6;fill-rule:evenodd;stroke:#000000;stroke-width:1px;stroke-linecap:butt;stroke-linejoin:miter;stroke-opacity:1" />
      <path
         inkscape:connector-curvature="0"
         id="path3414"
         d="m 614.73741,409.98939 17.2679,23.6817 120.87533,-95.22016 z"
         style="fill:none;fill-rule:evenodd;stroke:#000000;stroke-width:1px;stroke-linecap:butt;stroke-linejoin:miter;stroke-opacity:1" />
      <path
         inkscape:connector-curvature="0"
         sodipodi:nodetypes="cccc"
         id="path3416"
         d="m 689.23608,207.70822 -98.67374,2.46684 130.02018,23.59706 z"
         style="fill:#e6e6e6;fill-rule:evenodd;stroke:#000000;stroke-width:1px;stroke-linecap:butt;stroke-linejoin:miter;stroke-opacity:1" />
      <path
         inkscape:connector-curvature="0"
         id="path3418"
         d="m 621.64457,126.79575 12.33421,21.21486 39.96287,-21.70822 z"
         style="fill:#999999;fill-rule:evenodd;stroke:#000000;stroke-width:1px;stroke-linecap:butt;stroke-linejoin:miter;stroke-opacity:1" />
      <path
         inkscape:connector-curvature="0"
         sodipodi:nodetypes="cccc"
         id="path3420"
         d="M 690.69139,207.76807 645.81963,168.23873 590.06897,209.6817 Z"
         style="fill:#999999;fill-rule:evenodd;stroke:#000000;stroke-width:1px;stroke-linecap:butt;stroke-linejoin:miter;stroke-opacity:1" />
      <path
         inkscape:connector-curvature="0"
         sodipodi:nodetypes="cccc"
         id="path3422"
         d="m 716.37136,490.90186 -78.44563,-40.45624 -42.22534,34.96933 z"
         style="fill:#808080;fill-rule:evenodd;stroke:#000000;stroke-width:1px;stroke-linecap:butt;stroke-linejoin:miter;stroke-opacity:1" />
      <path
         inkscape:connector-curvature="0"
         sodipodi:nodetypes="cccc"
         id="path3424"
         d="m 595.82009,486.02802 157.06055,44.8367 -37.00265,-39.96286 z"
         style="fill:#cccccc;fill-rule:evenodd;stroke:#000000;stroke-width:1px;stroke-linecap:butt;stroke-linejoin:miter;stroke-opacity:1" />
      <path
         inkscape:connector-curvature="0"
         sodipodi:nodetypes="cccc"
         id="path3426"
         d="m 752.38727,531.35809 -168.73209,3.45358 11.20297,-48.23042 z"
         style="fill:#999999;fill-rule:evenodd;stroke:#000000;stroke-width:1px;stroke-linecap:butt;stroke-linejoin:miter;stroke-opacity:1" />
      <path
         inkscape:connector-curvature="0"
         sodipodi:nodetypes="cccc"
         id="path3428"
         d="m 768.17507,540.23873 -184.51989,-5.42706 168.73209,-4.44032 z"
         style="fill:#cccccc;fill-rule:evenodd;stroke:#000000;stroke-width:1px;stroke-linecap:butt;stroke-linejoin:miter;stroke-opacity:1" />
      <path
         inkscape:connector-curvature="0"
         id="path3430"
         d="m 583.16181,535.30504 10.36074,45.88329 174.15915,-40.45624 z"
         style="fill:#999999;fill-rule:evenodd;stroke:#000000;stroke-width:1px;stroke-linecap:butt;stroke-linejoin:miter;stroke-opacity:1" />
      <path
         inkscape:connector-curvature="0"
         id="path3432"
         d="m 594.50929,580.20159 207.70822,-7.8939 -34.04244,-32.06896 z"
         style="fill:#e6e6e6;fill-rule:evenodd;stroke:#000000;stroke-width:1px;stroke-linecap:butt;stroke-linejoin:miter;stroke-opacity:1" />
      <path
         inkscape:connector-curvature="0"
         sodipodi:nodetypes="cccc"
         id="path3434"
         d="m 593.52255,579.21485 16.77454,43.90982 192.41379,-50.81698 z"
         style="fill:#999999;fill-rule:evenodd;stroke:#000000;stroke-width:1px;stroke-linecap:butt;stroke-linejoin:miter;stroke-opacity:1" />
      <path
         inkscape:connector-curvature="0"
         id="path3438"
         d="m 765.21486,14.307691 -60.68435,48.843502 -37.00265,43.416447 -42.42971,46.87002 -37.00265,48.35014 -22.2016,46.87002 -9.86737,45.38992 6.41379,61.17772 v 5.42706 l 14.80106,-44.40318 22.2016,-39.96287 27.62864,-52.29708 31.5756,-42.92308 44.89655,-45.88329 32.56234,-29.60212 37.49602,-30.588858 24.17506,-24.175067 -12.82758,-22.201591 z"
         style="fill:#ececec;fill-rule:evenodd;stroke:#000000;stroke-width:1px;stroke-linecap:butt;stroke-linejoin:miter;stroke-opacity:1" />
      <path
         inkscape:connector-curvature="0"
         id="path3440"
         d="m 555.93574,65.828235 24.76937,40.119395 21.62959,33.83985 15.35003,24.07164 14.30344,-18.83868 -11.51252,-18.83867 -23.72278,-33.490979 -20.93186,-38.723944 z"
         style="fill:#cccccc;fill-rule:evenodd;stroke:#000000;stroke-width:1px;stroke-linecap:butt;stroke-linejoin:miter;stroke-opacity:1" />
      <path
         inkscape:connector-curvature="0"
         sodipodi:nodetypes="ccccccccccc"
         id="path3442"
         d="m 659.89731,180.60461 15.35004,-16.04777 24.4205,25.4671 33.14212,28.60688 21.28072,20.23413 16.39663,24.42051 -6.62842,17.09435 -19.53641,-22.67618 -23.72278,-24.07165 -32.09552,-27.56027 z"
         style="fill:#b3b3b3;fill-rule:evenodd;stroke:#000000;stroke-width:1px;stroke-linecap:butt;stroke-linejoin:miter;stroke-opacity:1" />
      <path
         inkscape:connector-curvature="0"
         sodipodi:nodetypes="cccccccccccccccccccccc"
         id="path3444"
         d="m 771.18505,263.98319 -16.39663,29.65347 -28.95574,31.04892 -29.65347,27.56029 -34.53757,33.49098 -44.65464,42.21258 -26.51369,44.65464 -16.04776,42.91032 -6.97729,41.16599 1.0466,21.28073 2.09318,16.39662 4.53524,25.11823 2.44205,-53.02738 6.62842,-31.04893 17.09435,-52.32965 40.07408,-48.33737 47.79442,-36.2819 29.69879,-25.97073 36.97962,-33.83984 19.88527,-29.65347 -1.74432,-21.62959 z"
         style="fill:#e6e6e6;fill-rule:evenodd;stroke:#000000;stroke-width:1px;stroke-linecap:butt;stroke-linejoin:miter;stroke-opacity:1" />
      <path
         inkscape:connector-curvature="0"
         sodipodi:nodetypes="cccccccccccccccccccccc"
         id="path3446"
         d="m 775.72028,311.42874 -10.11706,48.84101 -26.51369,34.53757 -32.79325,28.95574 -27.21142,24.76937 -24.07164,17.79208 -28.25802,30.70007 -13.95457,31.74665 -15.35003,36.28189 -6.27956,17.09436 -3.13978,25.11823 2.44205,29.30461 -14.30344,-15.35003 2.09319,-53.72512 6.97729,-31.74665 17.09435,-51.98079 40.39814,-47.97824 22.21787,-16.6959 17.62279,-13.12261 43.95691,-37.84664 29.91768,-28.52224 z"
         style="fill:#cccccc;fill-rule:evenodd;stroke:#000000;stroke-width:1px;stroke-linecap:butt;stroke-linejoin:miter;stroke-opacity:1" />
      <path
         inkscape:connector-curvature="0"
         sodipodi:nodetypes="cccccccccc"
         id="path3448"
         d="m 683.96896,445.04379 -21.97846,17.09435 49.4293,29.18489 40.92657,38.84366 14.6523,9.7682 35.58417,32.09552 19.88527,-4.18637 -55.46944,-56.16716 -36.63075,-32.44439 z"
         style="fill:#cccccc;fill-rule:evenodd;stroke:#000000;stroke-width:1px;stroke-linecap:butt;stroke-linejoin:miter;stroke-opacity:1" />
      <path
         inkscape:connector-curvature="0"
         sodipodi:nodetypes="cccccccccc"
         id="path3450"
         d="m 562.44032,359.17241 10.85411,36.50929 26.64191,32.06896 10.79426,10.15638 6.47365,-9.66301 7.66474,-7.8939 -10.76946,-10.30089 -32.9112,-31.14208 -13.32095,-35.52255 z"
         style="fill:#cccccc;fill-rule:evenodd;stroke:#000000;stroke-width:1px;stroke-linecap:butt;stroke-linejoin:miter;stroke-opacity:1" />
      <path
         inkscape:connector-curvature="0"
         id="path3452"
         d="m 592.04244,579.21485 -4.44031,27.13528 2.96021,29.10875 h 5.42705 l 13.81433,-12.82758 z"
         style="fill:#cccccc;fill-rule:evenodd;stroke:#000000;stroke-width:1px;stroke-linecap:butt;stroke-linejoin:miter;stroke-opacity:1" />
      <path
         inkscape:connector-curvature="0"
         sodipodi:nodetypes="ccccc"
         id="path3454"
         d="m 823.92574,567.86737 -10.85412,18.74801 -12.33421,14.80106 1.0774,-26.82148 z"
         style="fill:#999999;fill-rule:evenodd;stroke:#000000;stroke-width:1px;stroke-linecap:butt;stroke-linejoin:miter;stroke-opacity:1" />
      <path
         inkscape:connector-curvature="0"
         sodipodi:nodetypes="cccc"
         id="path3456"
         d="m 729.19894,592.53581 69.86427,5.37747 1.00727,-23.72703 z"
         style="fill:#e6e6e6;fill-rule:evenodd;stroke:#000000;stroke-width:1px;stroke-linecap:butt;stroke-linejoin:miter;stroke-opacity:1" />
      <path
         inkscape:connector-curvature="0"
         sodipodi:nodetypes="cccc"
         id="path3458"
         d="m 614.88191,410.19375 47.21889,-24.8728 -37.29167,35.4627 z"
         style="fill:#f9f9f9;fill-rule:evenodd;stroke:#000000;stroke-width:1px;stroke-linecap:butt;stroke-linejoin:miter;stroke-opacity:1" />
    </g>
  </g>
  <g
     inkscape:groupmode="layer"
     id="layer3"
     inkscape:label="Overlay"
     style="display:inline;opacity:1">
    <g
       aria-label="Modular Open-Source Genome Annotator"
       style="font-style:normal;font-weight:normal;font-size:10.58333302px;line-height:1.25;font-family:sans-serif;letter-spacing:0px;word-spacing:0px;fill:#1a1a1a;fill-opacity:1;stroke:none;stroke-width:0.26458332"
       id="text4167">
      <path
         d="m 541.67756,448.80343 11.66062,32.92409 11.59826,-32.92409 h 12.28417 v 45.39533 H 567.836 v -12.40889 l 0.93535,-21.41936 -12.253,33.82825 h -6.4227 l -12.22182,-33.79708 0.93535,21.38819 v 12.40889 h -9.35344 v -45.39533 z"
         style="font-style:normal;font-variant:normal;font-weight:bold;font-stretch:normal;font-size:63.85277939px;font-family:Roboto;-inkscape-font-specification:'Roboto Bold';fill:#1a1a1a;stroke-width:0.26458332"
         id="path71" />
      <path
         d="m 587.02001,477.01962 q 0,-4.95732 1.93304,-8.91694 1.96422,-3.95962 5.42499,-6.11091 3.49195,-2.15129 7.95042,-2.15129 6.89037,0 11.13059,4.77025 4.2714,4.77025 4.2714,12.68949 v 0.40532 q 0,4.92614 -1.90186,8.85458 -1.87069,3.89727 -5.39382,6.07974 -3.49195,2.18246 -8.04395,2.18246 -6.85919,0 -11.13059,-4.77025 -4.24022,-4.77025 -4.24022,-12.62713 z m 5.79913,0.68592 q 0,5.61206 2.58778,9.01047 2.61896,3.39842 6.9839,3.39842 4.39611,0 6.9839,-3.42959 2.58778,-3.46078 2.58778,-9.66522 0,-5.5497 -2.65014,-8.9793 -2.61896,-3.46077 -6.9839,-3.46077 -4.2714,0 -6.89036,3.39842 -2.61896,3.39841 -2.61896,9.72757 z"
         style="font-style:normal;font-variant:normal;font-weight:normal;font-stretch:normal;font-size:63.85277939px;line-height:2;font-family:Roboto;-inkscape-font-specification:Roboto;fill:#1a1a1a;stroke-width:0.26458332"
         id="path73" />
      <path
         d="m 623.56076,477.0508 q 0,-7.76335 3.67902,-12.47125 3.67901,-4.73907 9.63403,-4.73907 5.92385,0 9.38462,4.05315 v -17.58445 h 5.76795 v 47.88958 h -5.30028 l -0.2806,-3.61666 q -3.46077,4.24022 -9.63404,4.24022 -5.86149,0 -9.57168,-4.80143 -3.67902,-4.80143 -3.67902,-12.5336 z m 5.76795,0.65474 q 0,5.73677 2.36954,8.9793 2.36953,3.24252 6.5474,3.24252 5.48735,0 8.01278,-4.92614 v -15.49553 q -2.58779,-4.77025 -7.95042,-4.77025 -4.24023,0 -6.60976,3.2737 -2.36954,3.27371 -2.36954,9.6964 z"
         style="font-style:normal;font-variant:normal;font-weight:normal;font-stretch:normal;font-size:63.85277939px;line-height:2;font-family:Roboto;-inkscape-font-specification:Roboto;fill:#1a1a1a;stroke-width:0.26458332"
         id="path75" />
      <path
         d="m 681.83266,490.8627 q -3.36724,3.95962 -9.88347,3.95962 -5.39381,0 -8.23102,-3.11781 -2.80603,-3.14899 -2.83721,-9.29108 v -21.94939 h 5.76795 v 21.7935 q 0,7.66982 6.23563,7.66982 6.60976,0 8.79223,-4.92614 v -24.53718 h 5.76795 v 33.73472 h -5.48735 z"
         style="font-style:normal;font-variant:normal;font-weight:normal;font-stretch:normal;font-size:63.85277939px;line-height:2;font-family:Roboto;-inkscape-font-specification:Roboto;fill:#1a1a1a;stroke-width:0.26458332"
         id="path77" />
      <path
         d="m 702.44139,494.19876 h -5.76795 v -47.88958 h 5.76795 z"
         style="font-style:normal;font-variant:normal;font-weight:normal;font-stretch:normal;font-size:63.85277939px;line-height:2;font-family:Roboto;-inkscape-font-specification:Roboto;fill:#1a1a1a;stroke-width:0.26458332"
         id="path79" />
      <path
         d="m 732.46592,494.19876 q -0.49885,-0.9977 -0.81063,-3.5543 -4.02198,4.17786 -9.60286,4.17786 -4.9885,0 -8.19985,-2.80603 -3.18016,-2.83721 -3.18016,-7.17096 0,-5.2691 3.9908,-8.16867 4.02197,-2.93074 11.28647,-2.93074 h 5.61206 v -2.65014 q 0,-3.02428 -1.80833,-4.80143 -1.80833,-1.80833 -5.33145,-1.80833 -3.08664,0 -5.17557,1.5589 -2.08894,1.55891 -2.08894,3.77256 h -5.79912 q 0,-2.52543 1.77715,-4.86379 1.80833,-2.36954 4.86378,-3.74137 3.08664,-1.37184 6.76565,-1.37184 5.83031,0 9.13519,2.93074 3.30488,2.89957 3.42959,8.01278 v 15.5267 q 0,4.64554 1.18477,7.38921 v 0.49885 z m -9.57168,-4.39611 q 2.71249,0 5.14439,-1.40302 2.43189,-1.40301 3.52312,-3.64784 v -6.92154 h -4.52082 q -10.60056,0 -10.60056,6.20445 0,2.71249 1.80833,4.24022 1.80833,1.52773 4.64554,1.52773 z"
         style="font-style:normal;font-variant:normal;font-weight:normal;font-stretch:normal;font-size:63.85277939px;line-height:2;font-family:Roboto;-inkscape-font-specification:Roboto;fill:#1a1a1a;stroke-width:0.26458332"
         id="path81" />
      <path
         d="m 762.73986,465.63961 q -1.30948,-0.21825 -2.83721,-0.21825 -5.67441,0 -7.70099,4.83261 v 23.94479 h -5.76795 v -33.73472 h 5.61206 l 0.0935,3.89726 q 2.83721,-4.52082 8.04396,-4.52082 1.68361,0 2.5566,0.43649 z"
         style="font-style:normal;font-variant:normal;font-weight:normal;font-stretch:normal;font-size:63.85277939px;line-height:2;font-family:Roboto;-inkscape-font-specification:Roboto;fill:#1a1a1a;stroke-width:0.26458332"
         id="path83" />
      <path
         d="m 830.53578,472.52997 q 0,6.7033 -2.36953,11.75415 -2.36954,5.05086 -6.79683,7.79453 -4.39612,2.74367 -10.10171,2.74367 -5.64324,0 -10.07053,-2.71249 -4.42729,-2.7125 -6.85919,-7.73218 -2.43189,-5.05085 -2.46307,-11.59825 v -2.24483 q 0,-6.70329 2.40072,-11.78533 2.43189,-5.11321 6.828,-7.8257 4.4273,-2.74368 10.10171,-2.74368 5.67442,0 10.07053,2.74368 4.4273,2.71249 6.82801,7.8257 2.43189,5.08204 2.43189,11.75415 z m -9.47814,-2.05775 q 0,-7.13979 -2.55661,-10.84999 -2.5566,-3.71019 -7.29568,-3.71019 -4.70789,0 -7.2645,3.67901 -2.5566,3.64784 -2.58778,10.72527 v 2.21365 q 0,6.95272 2.5566,10.78763 2.55661,3.83491 7.35804,3.83491 4.70789,0 7.23332,-3.67902 2.52543,-3.7102 2.55661,-10.78763 z"
         style="font-style:normal;font-variant:normal;font-weight:bold;font-stretch:normal;font-size:63.85277939px;font-family:Roboto;-inkscape-font-specification:'Roboto Bold';fill:#1a1a1a;stroke-width:0.26458332"
         id="path85" />
      <path
         d="m 868.39872,477.70554 q 0,7.70099 -3.52313,12.40889 -3.52312,4.70789 -9.5405,4.70789 -6.14209,0 -9.66522,-3.89726 v 16.2438 h -5.76795 v -46.70482 h 5.2691 l 0.28061,3.74137 q 3.52312,-4.36493 9.78993,-4.36493 6.07973,0 9.60286,4.58318 3.5543,4.58318 3.5543,12.75185 z m -5.76795,-0.65474 q 0,-5.7056 -2.43189,-9.01048 -2.4319,-3.30488 -6.67212,-3.30488 -5.23792,0 -7.85689,4.64554 v 16.11909 q 2.58779,4.61436 7.91925,4.61436 4.14669,0 6.57858,-3.2737 2.46307,-3.30488 2.46307,-9.78993 z"
         style="font-style:normal;font-variant:normal;font-weight:normal;font-stretch:normal;font-size:63.85277939px;line-height:2;font-family:Roboto;-inkscape-font-specification:Roboto;fill:#1a1a1a;stroke-width:0.26458332"
         id="path87" />
      <path
         d="m 889.69337,494.82232 q -6.85918,0 -11.16176,-4.48965 -4.30258,-4.52082 -4.30258,-12.06593 v -1.06005 q 0,-5.01968 1.90186,-8.94812 1.93305,-3.95962 5.36264,-6.17327 3.46077,-2.24482 7.48275,-2.24482 6.57858,0 10.22642,4.33376 3.64784,4.33375 3.64784,12.40889 v 2.40071 h -22.85356 q 0.12471,4.9885 2.89956,8.07513 2.80603,3.05546 7.10861,3.05546 3.05546,0 5.17557,-1.24713 2.12011,-1.24712 3.7102,-3.30488 l 3.52312,2.74368 q -4.24022,6.51622 -12.72067,6.51622 z m -0.71709,-30.24277 q -3.49195,0 -5.86149,2.55661 -2.36954,2.52542 -2.93074,7.10861 h 16.89854 v -0.4365 q -0.24943,-4.39611 -2.36954,-6.79683 -2.12011,-2.43189 -5.73677,-2.43189 z"
         style="font-style:normal;font-variant:normal;font-weight:normal;font-stretch:normal;font-size:63.85277939px;line-height:2;font-family:Roboto;-inkscape-font-specification:Roboto;fill:#1a1a1a;stroke-width:0.26458332"
         id="path89" />
      <path
         d="m 914.94765,460.46404 0.18707,4.24022 q 3.86608,-4.86378 10.10171,-4.86378 10.69409,0 10.78762,12.06593 v 22.29235 h -5.76795 v -22.32353 q -0.0312,-3.64784 -1.68362,-5.39381 -1.62126,-1.74598 -5.08203,-1.74598 -2.80603,0 -4.92614,1.49655 -2.12011,1.49655 -3.30488,3.92844 v 24.03833 h -5.76795 v -33.73472 z"
         style="font-style:normal;font-variant:normal;font-weight:normal;font-stretch:normal;font-size:63.85277939px;line-height:2;font-family:Roboto;-inkscape-font-specification:Roboto;fill:#1a1a1a;stroke-width:0.26458332"
         id="path91" />
      <path
         d="m 956.78868,477.26904 h -15.21492 v -4.70789 h 15.21492 z"
         style="font-style:normal;font-variant:normal;font-weight:normal;font-stretch:normal;font-size:63.85277939px;line-height:2;font-family:Roboto;-inkscape-font-specification:Roboto;fill:#1a1a1a;stroke-width:0.26458332"
         id="path93" />
      <path
         d="m 991.68681,482.28872 q 0,-2.65014 -1.87069,-4.05315 -1.87068,-1.4342 -6.73447,-2.9931 -4.86379,-1.59009 -7.701,-3.11781 -7.73217,-4.17787 -7.73217,-11.2553 0,-3.67902 2.05776,-6.54741 2.08893,-2.89956 5.95502,-4.52082 3.89726,-1.62127 8.72987,-1.62127 4.86379,0 8.66752,1.77716 3.80373,1.74597 5.89266,4.95732 2.12009,3.21134 2.12009,7.29568 h -9.35341 q 0,-3.11782 -1.96422,-4.83261 -1.96423,-1.74598 -5.51853,-1.74598 -3.42959,0 -5.33146,1.46537 -1.90186,1.4342 -1.90186,3.80373 0,2.21365 2.21364,3.7102 2.24483,1.49655 6.57859,2.80603 7.98159,2.40072 11.62943,5.95502 3.64782,3.55431 3.64782,8.85458 0,5.89267 -4.45845,9.2599 -4.45847,3.33606 -12.00357,3.33606 -5.23793,0 -9.54051,-1.90186 -4.30258,-1.93304 -6.57858,-5.2691 -2.24482,-3.33606 -2.24482,-7.73218 h 9.38461 q 0,7.51393 8.9793,7.51393 3.33606,0 5.20674,-1.34066 1.87069,-1.37184 1.87069,-3.80373 z"
         style="font-style:normal;font-variant:normal;font-weight:bold;font-stretch:normal;font-size:63.85277939px;font-family:Roboto;-inkscape-font-specification:'Roboto Bold';fill:#1a1a1a;stroke-width:0.26458332"
         id="path95" />
      <path
         d="m 1008.169,477.01962 q 0,-4.95732 1.933,-8.91694 1.9643,-3.95962 5.425,-6.11091 3.492,-2.15129 7.9505,-2.15129 6.8903,0 11.1305,4.77025 4.2714,4.77025 4.2714,12.68949 v 0.40532 q 0,4.92614 -1.9018,8.85458 -1.8707,3.89727 -5.3938,6.07974 -3.492,2.18246 -8.044,2.18246 -6.8592,0 -11.1306,-4.77025 -4.2402,-4.77025 -4.2402,-12.62713 z m 5.7991,0.68592 q 0,5.61206 2.5878,9.01047 2.619,3.39842 6.9839,3.39842 4.3961,0 6.9839,-3.42959 2.5878,-3.46078 2.5878,-9.66522 0,-5.5497 -2.6502,-8.9793 -2.6189,-3.46077 -6.9838,-3.46077 -4.2715,0 -6.8904,3.39842 -2.619,3.39841 -2.619,9.72757 z"
         style="font-style:normal;font-variant:normal;font-weight:normal;font-stretch:normal;font-size:63.85277939px;line-height:2;font-family:Roboto;-inkscape-font-specification:Roboto;fill:#1a1a1a;stroke-width:0.26458332"
         id="path97" />
      <path
         d="m 1066.9397,490.8627 q -3.3672,3.95962 -9.8834,3.95962 -5.3938,0 -8.231,-3.11781 -2.8061,-3.14899 -2.8373,-9.29108 v -21.94939 h 5.768 v 21.7935 q 0,7.66982 6.2356,7.66982 6.6098,0 8.7923,-4.92614 v -24.53718 h 5.7679 v 33.73472 h -5.4873 z"
         style="font-style:normal;font-variant:normal;font-weight:normal;font-stretch:normal;font-size:63.85277939px;line-height:2;font-family:Roboto;-inkscape-font-specification:Roboto;fill:#1a1a1a;stroke-width:0.26458332"
         id="path99" />
      <path
         d="m 1097.5879,465.63961 q -1.3095,-0.21825 -2.8372,-0.21825 -5.6745,0 -7.701,4.83261 v 23.94479 h -5.768 v -33.73472 h 5.6121 l 0.093,3.89726 q 2.8372,-4.52082 8.044,-4.52082 1.6836,0 2.5566,0.43649 z"
         style="font-style:normal;font-variant:normal;font-weight:normal;font-stretch:normal;font-size:63.85277939px;line-height:2;font-family:Roboto;-inkscape-font-specification:Roboto;fill:#1a1a1a;stroke-width:0.26458332"
         id="path101" />
      <path
         d="m 1115.7647,490.11443 q 3.0866,0 5.3938,-1.87069 2.3072,-1.87069 2.5566,-4.67672 h 5.4562 q -0.1559,2.89957 -1.9954,5.51853 -1.8395,2.61896 -4.9262,4.17787 -3.0554,1.5589 -6.485,1.5589 -6.8904,0 -10.9747,-4.58318 -4.0532,-4.61436 -4.0532,-12.59596 v -0.96652 q 0,-4.92614 1.8084,-8.76105 1.8083,-3.83491 5.1755,-5.95502 3.3985,-2.12011 8.0128,-2.12011 5.6744,0 9.4158,3.39841 3.7726,3.39842 4.022,8.82341 h -5.4562 q -0.2494,-3.2737 -2.4942,-5.36264 -2.2137,-2.12011 -5.4874,-2.12011 -4.3961,0 -6.828,3.18017 -2.4007,3.14899 -2.4007,9.13519 v 1.09123 q 0,5.83031 2.4007,8.9793 2.4007,3.14899 6.8592,3.14899 z"
         style="font-style:normal;font-variant:normal;font-weight:normal;font-stretch:normal;font-size:63.85277939px;line-height:2;font-family:Roboto;-inkscape-font-specification:Roboto;fill:#1a1a1a;stroke-width:0.26458332"
         id="path103" />
      <path
         d="m 1149.6553,494.82232 q -6.8592,0 -11.1618,-4.48965 -4.3026,-4.52082 -4.3026,-12.06593 v -1.06005 q 0,-5.01968 1.9019,-8.94812 1.933,-3.95962 5.3626,-6.17327 3.4608,-2.24482 7.4828,-2.24482 6.5786,0 10.2264,4.33376 3.6478,4.33375 3.6478,12.40889 v 2.40071 h -22.8535 q 0.1247,4.9885 2.8995,8.07513 2.8061,3.05546 7.1086,3.05546 3.0555,0 5.1756,-1.24713 2.1201,-1.24712 3.7102,-3.30488 l 3.5231,2.74368 q -4.2402,6.51622 -12.7206,6.51622 z m -0.7171,-30.24277 q -3.492,0 -5.8615,2.55661 -2.3696,2.52542 -2.9308,7.10861 h 16.8986 v -0.4365 q -0.2494,-4.39611 -2.3696,-6.79683 -2.1201,-2.43189 -5.7367,-2.43189 z"
         style="font-style:normal;font-variant:normal;font-weight:normal;font-stretch:normal;font-size:63.85277939px;line-height:2;font-family:Roboto;-inkscape-font-specification:Roboto;fill:#1a1a1a;stroke-width:0.26458332"
         id="path105" />
      <path
         d="m 1229.6285,488.46199 q -2.5254,3.02427 -7.1397,4.70789 -4.6144,1.65244 -10.2265,1.65244 -5.8926,0 -10.3511,-2.5566 -4.4273,-2.58779 -6.8592,-7.48275 -2.4007,-4.89496 -2.4631,-11.50472 v -3.08664 q 0,-6.79683 2.276,-11.75415 2.3072,-4.9885 6.6098,-7.60746 4.3338,-2.65014 10.1329,-2.65014 8.0751,0 12.6271,3.86609 4.552,3.83491 5.3938,11.19294 h -9.104 q -0.6235,-3.89726 -2.7748,-5.70559 -2.1201,-1.80833 -5.8615,-1.80833 -4.7703,0 -7.2645,3.58548 -2.4943,3.58548 -2.5254,10.66292 v 2.89956 q 0,7.13979 2.7125,10.78763 2.7125,3.64784 7.9504,3.64784 5.2691,0 7.5139,-2.24483 v -7.8257 h -8.5116 v -6.89037 h 17.865 z"
         style="font-style:normal;font-variant:normal;font-weight:bold;font-stretch:normal;font-size:63.85277939px;font-family:Roboto;-inkscape-font-specification:'Roboto Bold';fill:#1a1a1a;stroke-width:0.26458332"
         id="path107" />
      <path
         d="m 1253.7111,494.82232 q -6.8592,0 -11.1618,-4.48965 -4.3026,-4.52082 -4.3026,-12.06593 v -1.06005 q 0,-5.01968 1.9019,-8.94812 1.933,-3.95962 5.3626,-6.17327 3.4608,-2.24482 7.4828,-2.24482 6.5786,0 10.2264,4.33376 3.6478,4.33375 3.6478,12.40889 v 2.40071 h -22.8535 q 0.1247,4.9885 2.8995,8.07513 2.8061,3.05546 7.1087,3.05546 3.0554,0 5.1755,-1.24713 2.1201,-1.24712 3.7102,-3.30488 l 3.5231,2.74368 q -4.2402,6.51622 -12.7206,6.51622 z m -0.7171,-30.24277 q -3.492,0 -5.8615,2.55661 -2.3695,2.52542 -2.9307,7.10861 h 16.8985 v -0.4365 q -0.2494,-4.39611 -2.3695,-6.79683 -2.1202,-2.43189 -5.7368,-2.43189 z"
         style="font-style:normal;font-variant:normal;font-weight:normal;font-stretch:normal;font-size:63.85277939px;line-height:2;font-family:Roboto;-inkscape-font-specification:Roboto;fill:#1a1a1a;stroke-width:0.26458332"
         id="path109" />
      <path
         d="m 1278.9654,460.46404 0.187,4.24022 q 3.8661,-4.86378 10.1017,-4.86378 10.6941,0 10.7877,12.06593 v 22.29235 h -5.768 v -22.32353 q -0.031,-3.64784 -1.6836,-5.39381 -1.6213,-1.74598 -5.082,-1.74598 -2.8061,0 -4.9262,1.49655 -2.1201,1.49655 -3.3049,3.92844 v 24.03833 h -5.7679 v -33.73472 z"
         style="font-style:normal;font-variant:normal;font-weight:normal;font-stretch:normal;font-size:63.85277939px;line-height:2;font-family:Roboto;-inkscape-font-specification:Roboto;fill:#1a1a1a;stroke-width:0.26458332"
         id="path111" />
      <path
         d="m 1307.275,477.01962 q 0,-4.95732 1.9331,-8.91694 1.9642,-3.95962 5.425,-6.11091 3.4919,-2.15129 7.9504,-2.15129 6.8904,0 11.1306,4.77025 4.2714,4.77025 4.2714,12.68949 v 0.40532 q 0,4.92614 -1.9019,8.85458 -1.8707,3.89727 -5.3938,6.07974 -3.4919,2.18246 -8.044,2.18246 -6.8591,0 -11.1305,-4.77025 -4.2403,-4.77025 -4.2403,-12.62713 z m 5.7992,0.68592 q 0,5.61206 2.5877,9.01047 2.619,3.39842 6.9839,3.39842 4.3962,0 6.9839,-3.42959 2.5878,-3.46078 2.5878,-9.66522 0,-5.5497 -2.6501,-8.9793 -2.619,-3.46077 -6.9839,-3.46077 -4.2714,0 -6.8904,3.39842 -2.6189,3.39841 -2.6189,9.72757 z"
         style="font-style:normal;font-variant:normal;font-weight:normal;font-stretch:normal;font-size:63.85277939px;line-height:2;font-family:Roboto;-inkscape-font-specification:Roboto;fill:#1a1a1a;stroke-width:0.26458332"
         id="path113" />
      <path
         d="m 1350.6438,460.46404 0.1559,3.74137 q 3.7102,-4.36493 10.0082,-4.36493 7.0774,0 9.634,5.42499 1.6836,-2.43189 4.3649,-3.92844 2.7125,-1.49655 6.3915,-1.49655 11.0995,0 11.2865,11.75415 v 22.60413 h -5.7679 v -22.26117 q 0,-3.61666 -1.6525,-5.39382 -1.6524,-1.80833 -5.5497,-1.80833 -3.2113,0 -5.3314,1.93305 -2.1201,1.90186 -2.4631,5.14438 v 22.38589 h -5.7991 v -22.10528 q 0,-7.35804 -7.2022,-7.35804 -5.6744,0 -7.7633,4.83261 v 24.63071 h -5.768 v -33.73472 z"
         style="font-style:normal;font-variant:normal;font-weight:normal;font-stretch:normal;font-size:63.85277939px;line-height:2;font-family:Roboto;-inkscape-font-specification:Roboto;fill:#1a1a1a;stroke-width:0.26458332"
         id="path115" />
      <path
         d="m 1415.2137,494.82232 q -6.8592,0 -11.1618,-4.48965 -4.3025,-4.52082 -4.3025,-12.06593 v -1.06005 q 0,-5.01968 1.9018,-8.94812 1.9331,-3.95962 5.3627,-6.17327 3.4607,-2.24482 7.4827,-2.24482 6.5786,0 10.2264,4.33376 3.6479,4.33375 3.6479,12.40889 v 2.40071 h -22.8536 q 0.1247,4.9885 2.8996,8.07513 2.806,3.05546 7.1086,3.05546 3.0554,0 5.1756,-1.24713 2.1201,-1.24712 3.7101,-3.30488 l 3.5232,2.74368 q -4.2403,6.51622 -12.7207,6.51622 z m -0.7171,-30.24277 q -3.4919,0 -5.8615,2.55661 -2.3695,2.52542 -2.9307,7.10861 h 16.8985 v -0.4365 q -0.2494,-4.39611 -2.3695,-6.79683 -2.1201,-2.43189 -5.7368,-2.43189 z"
         style="font-style:normal;font-variant:normal;font-weight:normal;font-stretch:normal;font-size:63.85277939px;line-height:2;font-family:Roboto;-inkscape-font-specification:Roboto;fill:#1a1a1a;stroke-width:0.26458332"
         id="path117" />
      <path
         d="m 1486.6655,484.84533 h -16.3997 l -3.1178,9.35343 h -9.9459 l 16.8986,-45.39533 h 8.6675 l 16.9921,45.39533 h -9.9459 z m -13.8743,-7.57629 h 11.3488 l -5.7056,-16.99207 z"
         style="font-style:normal;font-variant:normal;font-weight:bold;font-stretch:normal;font-size:63.85277939px;font-family:Roboto;-inkscape-font-specification:'Roboto Bold';fill:#1a1a1a;stroke-width:0.26458332"
         id="path119" />
      <path
         d="m 1511.9702,460.46404 0.187,4.24022 q 3.8661,-4.86378 10.1017,-4.86378 10.6941,0 10.7877,12.06593 v 22.29235 h -5.768 v -22.32353 q -0.031,-3.64784 -1.6836,-5.39381 -1.6213,-1.74598 -5.082,-1.74598 -2.8061,0 -4.9262,1.49655 -2.1201,1.49655 -3.3049,3.92844 v 24.03833 h -5.7679 v -33.73472 z"
         style="font-style:normal;font-variant:normal;font-weight:normal;font-stretch:normal;font-size:63.85277939px;line-height:2;font-family:Roboto;-inkscape-font-specification:Roboto;fill:#1a1a1a;stroke-width:0.26458332"
         id="path121" />
      <path
         d="m 1547.2638,460.46404 0.187,4.24022 q 3.8661,-4.86378 10.1018,-4.86378 10.6941,0 10.7876,12.06593 v 22.29235 h -5.768 v -22.32353 q -0.031,-3.64784 -1.6836,-5.39381 -1.6212,-1.74598 -5.082,-1.74598 -2.806,0 -4.9262,1.49655 -2.1201,1.49655 -3.3048,3.92844 v 24.03833 h -5.768 v -33.73472 z"
         style="font-style:normal;font-variant:normal;font-weight:normal;font-stretch:normal;font-size:63.85277939px;line-height:2;font-family:Roboto;-inkscape-font-specification:Roboto;fill:#1a1a1a;stroke-width:0.26458332"
         id="path123" />
      <path
         d="m 1575.5735,477.01962 q 0,-4.95732 1.933,-8.91694 1.9642,-3.95962 5.425,-6.11091 3.4919,-2.15129 7.9504,-2.15129 6.8904,0 11.1306,4.77025 4.2714,4.77025 4.2714,12.68949 v 0.40532 q 0,4.92614 -1.9019,8.85458 -1.8706,3.89727 -5.3938,6.07974 -3.4919,2.18246 -8.0439,2.18246 -6.8592,0 -11.1306,-4.77025 -4.2402,-4.77025 -4.2402,-12.62713 z m 5.7991,0.68592 q 0,5.61206 2.5878,9.01047 2.6189,3.39842 6.9839,3.39842 4.3961,0 6.9839,-3.42959 2.5878,-3.46078 2.5878,-9.66522 0,-5.5497 -2.6502,-8.9793 -2.6189,-3.46077 -6.9839,-3.46077 -4.2714,0 -6.8903,3.39842 -2.619,3.39841 -2.619,9.72757 z"
         style="font-style:normal;font-variant:normal;font-weight:normal;font-stretch:normal;font-size:63.85277939px;line-height:2;font-family:Roboto;-inkscape-font-specification:Roboto;fill:#1a1a1a;stroke-width:0.26458332"
         id="path125" />
      <path
         d="m 1621.3429,452.29537 v 8.16867 h 6.298 v 4.45847 h -6.298 v 20.92052 q 0,2.02657 0.8418,3.05545 0.8419,0.9977 2.8684,0.9977 0.9977,0 2.7437,-0.37414 v 4.67672 q -2.276,0.62356 -4.4273,0.62356 -3.8661,0 -5.8303,-2.33836 -1.9642,-2.33835 -1.9642,-6.64093 v -20.92052 h -6.1421 v -4.45847 h 6.1421 v -8.16867 z"
         style="font-style:normal;font-variant:normal;font-weight:normal;font-stretch:normal;font-size:63.85277939px;line-height:2;font-family:Roboto;-inkscape-font-specification:Roboto;fill:#1a1a1a;stroke-width:0.26458332"
         id="path127" />
      <path
         d="m 1655.1712,494.19876 q -0.4988,-0.9977 -0.8106,-3.5543 -4.022,4.17786 -9.6029,4.17786 -4.9885,0 -8.1998,-2.80603 -3.1802,-2.83721 -3.1802,-7.17096 0,-5.2691 3.9908,-8.16867 4.022,-2.93074 11.2865,-2.93074 h 5.6121 v -2.65014 q 0,-3.02428 -1.8084,-4.80143 -1.8083,-1.80833 -5.3314,-1.80833 -3.0867,0 -5.1756,1.5589 -2.0889,1.55891 -2.0889,3.77256 h -5.7992 q 0,-2.52543 1.7772,-4.86379 1.8083,-2.36954 4.8638,-3.74137 3.0866,-1.37184 6.7656,-1.37184 5.8303,0 9.1352,2.93074 3.3049,2.89957 3.4296,8.01278 v 15.5267 q 0,4.64554 1.1848,7.38921 v 0.49885 z m -9.5716,-4.39611 q 2.7124,0 5.1443,-1.40302 2.4319,-1.40301 3.5232,-3.64784 v -6.92154 h -4.5209 q -10.6005,0 -10.6005,6.20445 0,2.71249 1.8083,4.24022 1.8083,1.52773 4.6456,1.52773 z"
         style="font-style:normal;font-variant:normal;font-weight:normal;font-stretch:normal;font-size:63.85277939px;line-height:2;font-family:Roboto;-inkscape-font-specification:Roboto;fill:#1a1a1a;stroke-width:0.26458332"
         id="path129" />
      <path
         d="m 1676.9648,452.29537 v 8.16867 h 6.298 v 4.45847 h -6.298 v 20.92052 q 0,2.02657 0.8418,3.05545 0.8418,0.9977 2.8684,0.9977 0.9977,0 2.7437,-0.37414 v 4.67672 q -2.276,0.62356 -4.4273,0.62356 -3.8661,0 -5.8303,-2.33836 -1.9643,-2.33835 -1.9643,-6.64093 v -20.92052 h -6.142 v -4.45847 h 6.142 v -8.16867 z"
         style="font-style:normal;font-variant:normal;font-weight:normal;font-stretch:normal;font-size:63.85277939px;line-height:2;font-family:Roboto;-inkscape-font-specification:Roboto;fill:#1a1a1a;stroke-width:0.26458332"
         id="path131" />
      <path
         d="m 1687.8148,477.01962 q 0,-4.95732 1.933,-8.91694 1.9642,-3.95962 5.425,-6.11091 3.492,-2.15129 7.9504,-2.15129 6.8904,0 11.1306,4.77025 4.2714,4.77025 4.2714,12.68949 v 0.40532 q 0,4.92614 -1.9018,8.85458 -1.8707,3.89727 -5.3939,6.07974 -3.4919,2.18246 -8.0439,2.18246 -6.8592,0 -11.1306,-4.77025 -4.2402,-4.77025 -4.2402,-12.62713 z m 5.7991,0.68592 q 0,5.61206 2.5878,9.01047 2.619,3.39842 6.9839,3.39842 4.3961,0 6.9839,-3.42959 2.5878,-3.46078 2.5878,-9.66522 0,-5.5497 -2.6502,-8.9793 -2.6189,-3.46077 -6.9839,-3.46077 -4.2714,0 -6.8903,3.39842 -2.619,3.39841 -2.619,9.72757 z"
         style="font-style:normal;font-variant:normal;font-weight:normal;font-stretch:normal;font-size:63.85277939px;line-height:2;font-family:Roboto;-inkscape-font-specification:Roboto;fill:#1a1a1a;stroke-width:0.26458332"
         id="path133" />
      <path
         d="m 1742.0647,465.63961 q -1.3095,-0.21825 -2.8372,-0.21825 -5.6745,0 -7.701,4.83261 v 23.94479 h -5.768 v -33.73472 h 5.6121 l 0.093,3.89726 q 2.8372,-4.52082 8.044,-4.52082 1.6836,0 2.5566,0.43649 z"
         style="font-style:normal;font-variant:normal;font-weight:normal;font-stretch:normal;font-size:63.85277939px;line-height:2;font-family:Roboto;-inkscape-font-specification:Roboto;fill:#1a1a1a;stroke-width:0.26458332"
         id="path135" />
    </g>
    <g
       aria-label="O S G A"
       style="font-style:normal;font-weight:normal;font-size:435.60754395px;line-height:1.25;font-family:sans-serif;letter-spacing:16.34400749px;word-spacing:0px;display:inline;fill:#1a1a1a;fill-opacity:1;stroke:none;stroke-width:0.36300632"
       id="text4041-3">
      <path
         d="m 723.42142,194.55738 q 0,33.70164 -11.91314,59.09544 -11.91314,25.3938 -34.1719,39.18796 -22.10201,13.79417 -50.78759,13.79417 -28.37209,0 -50.63085,-13.63741 -22.25876,-13.63742 -34.4854,-38.87446 -12.22665,-25.3938 -12.3834,-58.31169 v -11.28613 q 0,-33.70164 12.06989,-59.2522 12.22665,-25.707297 34.32865,-39.344707 22.25877,-13.794162 50.7876,-13.794162 28.52884,0 50.63085,13.794162 22.25876,13.63741 34.32865,39.344707 12.22664,25.55056 12.22664,59.09545 z m -47.65256,-10.34562 q 0,-35.89617 -12.85365,-54.54964 -12.85365,-18.65347 -36.67993,-18.65347 -23.66953,0 -36.52318,18.49671 -12.85365,18.33997 -13.0104,53.92264 v 11.12938 q 0,34.95566 12.85365,54.23614 12.85365,19.28047 36.99344,19.28047 23.66952,0 36.36642,-18.49671 12.6969,-18.65347 12.85365,-54.23614 z"
         style="font-style:normal;font-variant:normal;font-weight:bold;font-stretch:normal;font-size:321.027771px;line-height:0;font-family:Roboto;-inkscape-font-specification:'Roboto Bold';letter-spacing:23.8125px;fill:#1a1a1a;stroke-width:0.36300632"
         id="path62" />
      <path
         d="m 1004.1364,243.62071 q 0,-13.32391 -9.40512,-20.37774 -9.40511,-7.21059 -33.8584,-15.04818 -24.45329,-7.99434 -38.7177,-15.67519 -38.87446,-21.00474 -38.87446,-56.58741 0,-18.49672 10.34562,-32.91789 10.50238,-14.577918 29.9396,-22.729014 19.59398,-8.151095 43.89052,-8.151095 24.45329,0 43.57704,8.934855 19.1237,8.778103 29.6261,24.923544 10.6591,16.14544 10.6591,36.67993 h -47.0256 q 0,-15.67518 -9.87532,-24.29654 -9.87537,-8.7781 -27.74508,-8.7781 -17.2427,0 -26.80456,7.36734 -9.56187,7.21058 -9.56187,19.12372 0,11.12938 11.12938,18.65347 11.28614,7.52409 33.07464,14.10767 40.12851,12.06989 58.46841,29.9396 18.34,17.86971 18.34,44.51752 0,29.6261 -22.4155,46.5553 -22.4155,16.77245 -60.34948,16.77245 -26.33431,0 -47.96606,-9.56187 -21.63176,-9.71861 -33.07464,-26.49106 -11.28613,-16.77245 -11.28613,-38.87445 h 47.1823 q 0,37.77719 45.14453,37.77719 16.77245,0 26.17756,-6.74033 9.40512,-6.89708 9.40512,-19.12372 z"
         style="font-style:normal;font-variant:normal;font-weight:bold;font-stretch:normal;font-size:321.027771px;line-height:0;font-family:Roboto;-inkscape-font-specification:'Roboto Bold';letter-spacing:23.8125px;fill:#1a1a1a;stroke-width:0.36300632"
         id="path64" />
      <path
         d="m 1391.7562,274.65757 q -12.6969,15.20493 -35.8962,23.66953 -23.1993,8.30785 -51.4146,8.30785 -29.6261,0 -52.0416,-12.85366 -22.2588,-13.0104 -34.4854,-37.62044 -12.0699,-24.61004 -12.3834,-57.84143 v -15.51843 q 0,-34.1719 11.4429,-59.09544 11.5996,-25.080298 33.2313,-38.247453 21.7885,-13.323906 50.9444,-13.323906 40.5987,0 63.4845,19.437228 22.8858,19.280481 27.1181,56.273911 h -45.7716 q -3.135,-19.59398 -13.9509,-28.68559 -10.6591,-9.0916 -29.4693,-9.0916 -23.9831,0 -36.5232,18.02646 -12.5402,18.02646 -12.6969,53.60913 v 14.57792 q 0,35.89617 13.6374,54.23614 13.6374,18.33996 39.9717,18.33996 26.4911,0 37.7772,-11.28613 v -39.34471 h -42.7933 v -34.64216 h 89.8189 z"
         style="font-style:normal;font-variant:normal;font-weight:bold;font-stretch:normal;font-size:321.027771px;line-height:0;font-family:Roboto;-inkscape-font-specification:'Roboto Bold';letter-spacing:23.8125px;fill:#1a1a1a;stroke-width:0.36300632"
         id="path66" />
      <path
         d="m 1686.7356,256.47436 h -82.4515 l -15.6752,47.02555 h -50.0038 l 84.9595,-228.230682 h 43.577 l 85.4297,228.230682 h -50.0038 z m -69.7546,-38.0907 h 57.0577 l -28.6856,-85.42975 z"
         style="font-style:normal;font-variant:normal;font-weight:bold;font-stretch:normal;font-size:321.027771px;line-height:0;font-family:Roboto;-inkscape-font-specification:'Roboto Bold';letter-spacing:23.8125px;fill:#1a1a1a;stroke-width:0.36300632"
         id="path68" />
    </g>
  </g>
</svg>
